<?xml version="1.0" standalone="no"?>
<!DOCTYPE svg PUBLIC "-//W3C//DTD SVG 20010904//EN"
 "http://www.w3.org/TR/2001/REC-SVG-20010904/DTD/svg10.dtd">
<svg version="1.0" xmlns="http://www.w3.org/2000/svg"
 width="512.000000pt" height="512.000000pt" viewBox="0 0 512.000000 512.000000"
 preserveAspectRatio="xMidYMid meet">
<metadata>
Created by potrace 1.14, written by Peter Selinger 2001-2017
</metadata>
<g transform="translate(0.000000,512.000000) scale(0.100000,-0.100000)"
fill="#000000" stroke="none">
<path d="M0 2560 l0 -2560 2560 0 2560 0 0 2560 0 2560 -2560 0 -2560 0 0
-2560z m3119 2225 c255 -16 589 -51 624 -64 12 -5 31 -19 42 -31 18 -20 20
-36 20 -181 0 -149 -1 -160 -22 -180 -27 -28 -54 -28 -182 0 -57 12 -105 20
-107 18 -2 -2 -4 -388 -4 -858 l0 -854 253 -3 253 -2 29 39 c47 61 88 85 159
89 82 5 142 -25 171 -86 l20 -41 158 -1 c133 0 157 -2 157 -15 0 -13 -24 -15
-155 -15 l-155 0 0 -25 c0 -62 -66 -142 -136 -165 -113 -38 -227 32 -249 153
l-7 38 -252 -3 -251 -3 2 -535 c1 -294 5 -688 9 -875 l6 -340 -940 -3 -940 -3
-7 21 c-4 11 -1 114 5 228 7 127 10 457 8 857 l-3 650 -598 2 c-329 2 -602 5
-608 8 -34 22 51 25 607 25 l604 0 0 855 0 855 -30 0 c-16 0 -67 -9 -112 -19
-96 -22 -131 -19 -158 17 -18 22 -20 40 -20 169 0 152 9 191 49 213 32 16 359
53 661 73 155 11 892 5 1099 -8z m1199 -639 c53 -28 84 -71 90 -125 6 -63 -9
-101 -58 -145 -65 -59 -155 -72 -230 -33 -120 61 -114 234 12 296 51 25 145
29 186 7z m-3149 -444 c67 -49 89 -130 57 -207 -17 -40 -30 -48 -16 -9 6 14
10 37 10 52 l0 27 -18 -30 c-23 -37 -86 -93 -119 -106 -14 -5 -23 -12 -20 -15
3 -3 15 0 27 6 12 6 28 9 36 6 8 -3 14 -2 14 2 0 4 9 8 20 9 64 5 -39 -55
-108 -64 -123 -14 -217 93 -183 208 15 51 65 107 116 130 51 24 146 20 184 -9z
m16 -1886 c196 -91 204 -352 14 -449 -139 -71 -301 -29 -365 95 -22 43 -29
138 -14 192 40 143 228 227 365 162z m3169 -174 c16 -9 38 -29 49 -44 24 -32
34 -118 18 -144 -10 -16 -11 -13 -8 20 l3 39 -18 -24 c-62 -82 -86 -104 -135
-126 -60 -28 -68 -38 -20 -27 17 4 38 7 45 7 6 0 12 4 12 8 0 8 26 6 35 -3 12
-12 -83 -48 -126 -48 -99 1 -169 66 -169 159 0 52 12 81 51 125 70 81 182 105
263 58z m-2779 -898 c18 -2 34 -13 40 -26 l10 -21 943 -2 943 -1 6 27 c5 25 8
27 89 33 70 6 91 4 126 -12 69 -30 71 -35 73 -200 2 -154 -5 -196 -35 -212
-20 -11 -263 -35 -510 -50 -91 -6 -367 -14 -615 -17 -472 -6 -731 2 -1093 36
-254 24 -237 8 -237 226 0 164 0 164 26 191 41 40 104 48 234 28z"/>
<path d="M2088 4360 c-223 -3 -409 -8 -412 -11 -3 -3 -6 -390 -6 -860 l0 -854
342 -3 343 -2 -108 111 c-177 182 -284 357 -372 602 l-42 117 153 0 154 0 0
53 c0 67 18 87 81 87 64 -1 90 -24 97 -89 l5 -51 484 0 c384 0 484 -3 480 -12
-2 -7 -19 -56 -37 -108 -85 -250 -188 -415 -384 -617 l-89 -93 337 0 336 0 0
860 c0 680 -3 862 -12 865 -22 7 -919 10 -1350 5z"/>
<path d="M1669 2590 c0 -3 0 -324 0 -715 l1 -710 70 -3 70 -3 0 78 c0 244 66
466 192 650 29 43 136 163 239 268 195 199 249 264 249 299 0 27 -56 125 -76
133 -18 7 -744 10 -745 3z"/>
<path d="M2685 2558 c-94 -103 -89 -111 215 -423 207 -211 280 -310 341 -459
44 -108 77 -258 87 -406 l7 -105 58 -3 57 -3 0 720 0 720 -366 -2 -366 -2 -33
-37z"/>
<path d="M4350 2564 c0 -6 -19 -29 -42 -52 -43 -44 -41 -58 3 -18 30 26 54 65
45 74 -3 3 -6 1 -6 -4z"/>
<path d="M2355 1499 c-39 -11 -87 -54 -109 -97 -26 -50 -14 -48 22 3 17 24 46
52 64 61 74 40 216 8 301 -67 43 -37 87 -96 87 -115 0 -5 -11 8 -23 29 -32 52
-94 100 -172 131 -135 54 -222 23 -232 -81 l-5 -52 38 -10 c44 -12 139 -66
196 -112 35 -28 43 -30 110 -27 l73 3 20 41 c17 35 22 40 33 28 7 -8 8 -14 2
-14 -5 0 -10 -7 -10 -16 0 -9 5 -12 12 -8 7 4 8 3 4 -4 -4 -7 -14 -12 -22 -12
-8 0 -14 -5 -14 -11 0 -6 10 -9 23 -7 19 3 22 10 25 61 3 67 -20 128 -66 168
-24 22 -25 22 -8 2 27 -33 13 -28 -40 13 -62 47 -111 71 -181 89 -64 17 -84
17 -128 4z"/>
<path d="M3138 1353 c7 -3 16 -2 19 1 4 3 -2 6 -13 5 -11 0 -14 -3 -6 -6z"/>
<path d="M3060 1340 c-18 -12 -2 -12 25 0 13 6 15 9 5 9 -8 0 -22 -4 -30 -9z"/>
<path d="M3076 1305 c-46 -16 -111 -77 -125 -117 -9 -26 -8 -28 14 -28 13 0
30 9 38 20 8 11 17 17 21 12 4 -4 7 -2 5 3 -5 22 22 65 50 80 38 19 123 19
161 0 30 -16 47 -39 61 -84 6 -23 7 -21 8 15 2 89 -117 140 -233 99z"/>
<path d="M2978 1283 c-32 -36 -58 -75 -58 -88 0 -5 10 6 21 25 12 19 33 47 47
63 14 15 23 27 21 27 -3 0 -17 -12 -31 -27z"/>
<path d="M2385 1245 c11 -9 29 -21 40 -26 l20 -10 -20 16 c-11 9 -29 21 -40
26 l-20 10 20 -16z"/>
<path d="M2355 1211 c19 -22 55 -46 55 -38 0 3 -17 17 -37 33 -31 23 -34 24
-18 5z"/>
<path d="M2473 1186 c15 -14 33 -26 39 -26 13 0 14 0 -32 29 l-35 23 28 -26z"/>
<path d="M4367 3960 c-21 -34 -61 -65 -114 -86 l-38 -14 40 6 c22 3 50 7 63 9
40 6 63 33 76 88 8 36 -5 35 -27 -3z m-17 -54 c0 -2 -8 -10 -17 -17 -16 -13
-17 -12 -4 4 13 16 21 21 21 13z"/>
<path d="M995 1755 c-68 -32 -115 -98 -115 -160 0 -61 73 -155 120 -155 8 0 0
8 -17 16 -38 19 -93 97 -93 132 0 65 85 153 163 167 56 11 121 -11 157 -52 32
-36 42 -33 12 4 -47 59 -155 82 -227 48z"/>
<path d="M1226 1454 c-22 -19 -60 -41 -85 -49 -26 -7 -37 -14 -26 -14 32 -1
97 34 129 68 39 41 31 39 -18 -5z"/>
<path d="M890 1456 c0 -2 8 -10 18 -17 15 -13 16 -12 3 4 -13 16 -21 21 -21
13z"/>
<path d="M1000 1390 c25 -8 97 -13 89 -6 -2 2 -29 6 -59 9 -36 4 -46 3 -30 -3z"/>
</g>
</svg>
